<?xml version="1.0" standalone="no"?>
<!DOCTYPE svg PUBLIC "-//W3C//DTD SVG 20010904//EN"
 "http://www.w3.org/TR/2001/REC-SVG-20010904/DTD/svg10.dtd">
<svg version="1.0" xmlns="http://www.w3.org/2000/svg"
 width="560.000000pt" height="560.000000pt" viewBox="0 0 560.000000 560.000000"
 preserveAspectRatio="xMidYMid meet">
<metadata>
Created by potrace 1.11, written by Peter Selinger 2001-2013
</metadata>
<g transform="translate(0.000000,560.000000) scale(0.100000,-0.100000)"
fill="#000000" stroke="none">
<path d="M2609 5445 c-2 -2 -38 -6 -79 -9 -41 -3 -84 -8 -96 -10 -12 -2 -45
-7 -75 -11 -30 -3 -70 -10 -89 -15 -19 -5 -51 -12 -70 -14 -37 -6 -178 -43
-220 -59 -8 -3 -60 -20 -115 -38 -55 -18 -110 -39 -122 -47 -13 -8 -23 -11
-23 -7 0 4 -6 2 -13 -4 -8 -6 -17 -8 -20 -4 -4 3 -7 1 -7 -5 0 -7 -5 -12 -11
-12 -20 0 -268 -127 -280 -143 -3 -5 -10 -9 -15 -9 -5 -1 -25 -11 -44 -23 -19
-12 -50 -30 -67 -40 -18 -11 -33 -23 -33 -27 0 -4 -4 -8 -10 -8 -5 0 -51 -31
-101 -69 -374 -284 -631 -607 -837 -1051 -60 -129 -149 -404 -168 -519 -3 -14
-9 -48 -14 -76 -28 -148 -35 -247 -34 -460 0 -172 3 -220 19 -350 39 -304 169
-674 334 -954 33 -56 142 -222 151 -231 3 -3 32 -39 65 -80 107 -135 215 -246
375 -385 48 -41 227 -175 235 -175 3 0 11 -5 18 -10 25 -21 102 -70 111 -70 5
0 17 -6 25 -14 48 -43 352 -179 521 -234 133 -43 216 -65 380 -97 14 -3 45 -8
70 -11 25 -3 56 -7 70 -10 97 -19 506 -26 635 -11 39 5 84 10 100 12 78 9 268
47 338 67 23 6 44 12 47 13 159 38 472 170 645 270 51 30 219 140 239 156 6 5
29 23 51 40 201 152 434 390 547 559 10 14 35 51 58 84 22 32 40 60 40 63 0 2
13 23 28 46 30 44 38 59 108 197 60 120 145 342 170 442 2 10 6 26 9 35 3 10
16 68 29 128 40 188 51 296 51 530 0 99 -4 212 -8 250 -4 39 -9 89 -12 113 -2
24 -6 51 -9 60 -3 9 -8 35 -11 57 -4 22 -9 49 -12 60 -3 11 -7 29 -8 40 -3 25
-42 158 -59 205 -8 19 -14 37 -14 40 -3 29 -76 208 -132 320 -149 304 -343
559 -606 800 -74 69 -201 170 -212 170 -6 0 -12 4 -14 8 -5 13 -140 103 -238
159 -255 147 -570 265 -840 317 -101 19 -127 24 -140 24 -15 1 -55 7 -127 18
-43 6 -479 15 -484 9z"/>
</g>
</svg>
