<?xml version="1.0" standalone="no"?>
<!DOCTYPE svg PUBLIC "-//W3C//DTD SVG 20010904//EN"
 "http://www.w3.org/TR/2001/REC-SVG-20010904/DTD/svg10.dtd">
<svg version="1.0" xmlns="http://www.w3.org/2000/svg"
 width="800.000000pt" height="800.000000pt" viewBox="0 0 800.000000 800.000000"
 preserveAspectRatio="xMidYMid meet">
<metadata>
Created by potrace 1.11, written by Peter Selinger 2001-2013
</metadata>
<g transform="translate(0.000000,800.000000) scale(0.100000,-0.100000)"
fill="#000000" stroke="none">
<path d="M3860 7978 c-41 -10 -79 -21 -85 -22 -5 -1 -41 -13 -80 -26 -38 -13
-72 -25 -75 -25 -39 -10 -204 -89 -310 -149 -126 -71 -163 -95 -302 -199 -58
-43 -109 -80 -112 -81 -3 0 -114 107 -246 238 -132 132 -241 235 -241 230 -5
-40 -8 -82 -14 -164 -3 -52 -7 -115 -10 -140 -2 -25 -7 -88 -10 -140 -3 -52
-8 -113 -10 -135 -2 -22 -6 -85 -10 -140 -3 -55 -8 -116 -10 -135 -2 -19 -7
-78 -10 -130 -9 -132 -12 -148 -40 -185 -14 -17 -25 -35 -25 -39 0 -4 -18 -35
-40 -69 -86 -132 -246 -471 -324 -687 -15 -41 -31 -84 -36 -95 -5 -11 -28 -76
-51 -145 -23 -69 -47 -131 -52 -137 -5 -7 -7 -13 -3 -13 3 0 1 -12 -5 -27 -14
-35 -79 -215 -83 -228 -2 -5 -6 -17 -9 -25 -3 -8 -24 -69 -47 -135 -23 -66
-45 -129 -50 -140 -4 -11 -22 -63 -40 -115 -17 -52 -34 -102 -37 -110 -3 -8
-7 -19 -8 -25 -2 -5 -30 -91 -63 -190 -54 -164 -151 -471 -156 -499 -2 -6 -11
-37 -20 -70 -10 -32 -19 -64 -21 -70 -1 -6 -4 -18 -7 -26 -11 -28 -88 -326
-93 -356 -3 -16 -16 -76 -30 -134 -14 -58 -27 -116 -29 -130 -2 -14 -5 -25 -6
-25 -1 0 -3 -9 -5 -20 -6 -40 -15 -91 -19 -115 -13 -67 -36 -214 -46 -290 -6
-47 -13 -101 -15 -120 -20 -148 -27 -625 -11 -755 4 -38 10 -83 11 -100 10
-82 64 -329 85 -380 4 -11 20 -54 35 -95 62 -168 168 -351 280 -486 81 -96
245 -254 265 -254 5 0 10 -3 12 -8 5 -12 97 -75 208 -142 287 -172 637 -307
1025 -394 114 -25 146 -32 205 -41 19 -3 42 -8 51 -11 9 -2 36 -7 60 -9 24 -3
55 -7 69 -10 23 -4 69 -10 170 -20 19 -2 55 -6 80 -9 114 -14 278 -20 560 -21
308 0 446 6 660 30 19 2 60 7 90 10 48 5 117 14 225 30 17 2 41 6 55 9 14 3
42 7 62 10 21 3 57 10 81 16 25 5 59 12 78 15 19 2 61 11 94 20 33 8 71 17 85
20 14 3 75 18 135 35 61 17 119 33 129 35 60 14 317 106 411 147 93 40 260
125 323 163 34 21 107 70 118 80 7 5 24 19 40 30 49 35 160 148 191 195 66
101 129 276 148 415 3 17 7 41 10 55 8 42 15 93 22 170 8 96 8 589 0 698 -12
144 -17 206 -22 252 -3 25 -7 68 -10 95 -8 82 -13 116 -36 285 -6 41 -12 86
-14 100 -2 14 -7 45 -10 70 -3 25 -8 52 -10 60 -2 8 -7 34 -10 56 -3 23 -12
77 -20 120 -8 44 -17 93 -19 109 -3 17 -7 39 -9 50 -2 11 -7 36 -11 55 -11 62
-23 125 -57 290 -18 83 -24 114 -35 155 -1 6 -5 26 -9 45 -3 19 -11 53 -17 75
-5 22 -12 51 -14 65 -3 14 -7 33 -10 42 -3 9 -6 25 -8 35 -2 10 -10 38 -16 63
-7 25 -14 54 -15 65 -3 22 -74 299 -99 386 -9 31 -19 65 -21 75 -13 56 -104
373 -141 489 -14 44 -27 87 -29 95 -10 40 -156 461 -175 505 -5 11 -26 61 -46
110 -34 83 -117 254 -147 299 -48 76 -77 127 -77 136 0 5 -4 10 -10 10 -5 0
-10 4 -10 9 0 10 -50 92 -127 211 l-42 64 0 112 c1 62 -2 117 -5 123 -4 6 -4
11 1 11 4 0 8 200 8 444 1 489 5 460 -60 399 -16 -15 -57 -50 -90 -78 -33 -27
-71 -60 -85 -72 -14 -12 -86 -73 -161 -136 l-136 -115 -69 70 c-38 39 -98 96
-134 128 -63 57 -246 200 -254 200 -3 0 -31 17 -63 39 -62 41 -217 118 -278
137 -176 57 -214 64 -375 69 -102 3 -139 0 -200 -17z m318 -134 c26 -4 52 -9
57 -9 69 -9 325 -109 345 -136 3 -3 15 -9 27 -13 13 -4 29 -13 36 -19 7 -7 45
-34 86 -61 40 -27 78 -54 85 -60 6 -6 36 -31 66 -56 74 -60 239 -226 329 -330
110 -127 108 -125 216 -270 251 -337 519 -777 616 -1010 28 -69 58 -139 65
-157 8 -17 14 -33 14 -36 0 -3 5 -18 12 -34 6 -15 12 -32 14 -38 1 -5 17 -50
34 -100 41 -117 101 -305 146 -458 55 -186 67 -229 79 -277 2 -8 4 -15 5 -15
1 0 3 -10 6 -23 2 -13 15 -62 28 -110 23 -81 93 -359 101 -399 1 -10 11 -47
20 -83 9 -36 19 -76 21 -90 3 -14 9 -41 14 -60 5 -19 18 -82 30 -140 12 -58
24 -114 27 -125 5 -26 10 -48 34 -170 22 -105 24 -118 33 -175 3 -19 8 -46 11
-60 3 -14 8 -40 11 -59 3 -18 7 -43 10 -54 2 -12 6 -39 10 -62 3 -22 9 -58 14
-79 5 -22 7 -43 4 -47 -2 -4 0 -10 6 -14 6 -4 8 -10 5 -15 -2 -4 0 -32 5 -61
5 -30 12 -74 15 -99 3 -25 7 -56 10 -70 2 -14 7 -47 10 -75 6 -50 9 -73 19
-155 4 -25 8 -72 11 -105 3 -33 7 -80 10 -105 4 -27 3 -41 -3 -35 -10 11 -25
56 -68 209 -16 54 -33 100 -39 102 -21 8 -130 -32 -128 -47 0 -8 15 -59 33
-114 17 -55 33 -107 35 -115 7 -31 54 -186 60 -202 4 -11 3 -18 -4 -18 -6 0
-11 6 -11 13 0 26 -371 752 -383 749 -12 -4 -110 -51 -115 -57 -2 -1 121 -251
272 -555 152 -304 276 -554 276 -556 0 -2 -11 2 -25 8 -14 6 -25 15 -25 20 0
4 -5 8 -11 8 -16 0 -133 98 -228 191 -57 57 -162 175 -225 254 -26 33 -53 67
-59 75 -94 118 -337 487 -337 510 0 5 -4 10 -8 12 -7 3 -26 35 -114 193 -15
28 -67 129 -115 225 -48 96 -91 177 -94 180 -3 3 -11 20 -18 38 -8 18 -16 31
-20 30 -3 -2 -32 -16 -63 -31 -32 -15 -58 -30 -58 -34 0 -12 154 -318 232
-460 261 -477 532 -855 796 -1111 132 -129 250 -217 370 -279 l92 -47 -5 -41
c-3 -22 -7 -61 -9 -86 -6 -62 -44 -221 -69 -288 -40 -110 -91 -177 -216 -291
-30 -27 -139 -100 -149 -100 -6 0 -12 -4 -14 -9 -4 -13 -179 -102 -191 -98 -5
1 -11 30 -13 62 -6 114 -27 276 -49 375 -3 14 -7 34 -9 45 -2 12 -13 52 -25
89 -51 166 -124 237 -202 200 -26 -13 -26 -13 -37 44 -6 31 -13 68 -16 82 -3
14 -8 39 -12 55 -3 17 -15 57 -26 90 -45 137 -77 178 -136 179 -80 0 -115 -61
-137 -244 -6 -48 -14 -219 -15 -313 l0 -58 -30 16 c-69 36 -128 8 -170 -80
-32 -66 -36 -80 -54 -210 -17 -121 -12 -471 8 -601 3 -19 4 -34 2 -34 -2 0
-28 -5 -57 -10 -30 -6 -67 -13 -84 -15 -16 -3 -41 -7 -55 -10 -14 -3 -41 -7
-60 -10 -19 -3 -48 -8 -64 -11 -16 -3 -50 -7 -75 -9 -25 -2 -46 -5 -46 -5 0
-4 -132 -20 -205 -25 -19 -2 -73 -6 -120 -10 -181 -15 -592 -21 -755 -11 -160
10 -279 18 -294 21 -9 1 -46 6 -83 10 l-68 7 6 32 c2 17 7 42 9 56 9 55 18
211 19 320 1 271 -34 442 -104 512 -31 32 -44 38 -79 38 -23 0 -53 -7 -66 -16
-14 -9 -25 -15 -25 -13 0 2 -2 65 -5 139 -6 176 -13 251 -30 314 -25 95 -35
112 -73 133 -73 40 -128 -1 -178 -133 -14 -38 -27 -76 -29 -84 -2 -8 -8 -35
-15 -60 -13 -48 -14 -53 -25 -117 -7 -42 -17 -53 -30 -33 -11 18 -78 11 -110
-11 -91 -63 -158 -297 -190 -664 -4 -44 -8 -102 -9 -130 -1 -47 -2 -50 -26
-46 -24 3 -57 17 -180 74 -36 17 -67 31 -70 31 -10 2 -155 79 -195 105 -22 14
-42 26 -45 26 -24 2 -203 140 -294 225 -96 91 -266 312 -266 347 0 6 -4 13 -9
15 -4 2 -18 25 -30 53 l-22 50 23 18 c122 97 241 220 346 357 23 30 46 60 50
65 5 6 11 15 13 20 2 6 34 55 70 110 36 55 89 143 118 195 28 52 56 102 61
110 17 26 136 281 180 384 86 204 238 625 266 736 2 8 13 47 25 85 23 75 36
144 25 134 -4 -4 -31 -1 -59 7 -29 8 -57 14 -63 14 -7 0 -22 -37 -34 -82 -12
-45 -49 -161 -81 -258 -33 -96 -60 -180 -62 -187 -2 -7 -6 -16 -10 -19 -4 -4
-7 -13 -7 -21 0 -56 -317 -769 -367 -825 -9 -10 -13 -18 -10 -18 5 0 -38 -76
-73 -130 -105 -163 -207 -299 -294 -395 -43 -47 -59 -49 -35 -4 6 11 12 28 14
37 5 20 111 309 125 337 5 11 19 49 31 85 11 36 25 71 31 78 6 6 8 12 5 12 -4
0 3 21 13 46 11 25 20 51 20 59 0 16 -118 61 -130 49 -5 -5 -50 -121 -100
-259 -50 -137 -94 -257 -97 -265 -8 -18 -10 -27 -12 -40 -3 -24 -18 -7 -16 18
2 15 6 56 9 92 3 36 9 88 11 115 3 28 7 68 10 90 7 74 16 139 41 325 14 102
27 199 30 215 2 17 6 46 9 65 3 19 8 53 11 75 2 22 6 47 9 55 2 8 7 35 10 60
3 25 15 94 25 155 21 117 19 125 -27 125 -29 0 -27 0 -62 10 -37 10 -38 8 -56
-115 -5 -40 -14 -92 -22 -130 -2 -11 -6 -40 -9 -65 -3 -25 -7 -52 -9 -60 -2
-8 -7 -35 -10 -60 -3 -25 -8 -63 -12 -85 -3 -22 -7 -47 -8 -55 -1 -8 -5 -33
-9 -55 -3 -22 -8 -56 -10 -75 -3 -19 -12 -89 -20 -155 -9 -66 -18 -142 -21
-170 -4 -27 -8 -63 -10 -80 -2 -16 -4 -45 -4 -64 -3 -119 -24 119 -24 269 -1
151 17 406 39 565 3 22 7 55 9 73 2 18 6 41 9 50 3 9 8 40 12 67 3 28 8 59 10
70 2 11 7 34 10 50 3 17 21 102 40 190 19 88 37 169 39 181 4 19 51 195 106
401 10 40 31 109 45 154 14 45 27 89 29 98 2 9 20 68 41 131 21 63 39 120 40
125 3 14 113 341 168 500 81 236 191 548 203 575 3 8 7 20 9 25 1 6 23 69 49
140 26 72 48 135 49 140 2 6 6 17 9 25 4 8 16 42 27 75 12 33 25 69 30 80 5
11 21 49 36 85 138 339 330 662 548 920 89 106 255 274 331 335 28 22 56 46
63 53 25 23 206 149 277 192 166 101 429 215 557 241 4 1 28 7 53 14 50 12
167 12 243 -1z m-1497 -365 l108 -107 -27 -24 c-52 -48 -169 -174 -217 -233
-26 -33 -50 -62 -52 -65 -5 -5 3 143 12 240 3 25 7 86 11 135 10 156 12 190
13 194 2 6 36 -25 152 -140z m2936 -299 c-1 -165 -3 -300 -3 -300 -1 0 -29 38
-63 85 -34 46 -67 90 -74 97 -6 7 -24 29 -39 50 -15 20 -33 42 -40 50 -7 7
-26 28 -41 47 l-28 33 23 20 c13 11 61 53 108 92 47 39 90 76 95 82 9 10 57
44 61 44 1 0 1 -135 1 -300z m137 -5795 c12 -67 15 -81 20 -115 3 -19 8 -46
10 -60 3 -14 8 -52 11 -85 4 -33 9 -76 11 -95 9 -69 13 -116 19 -195 3 -44 8
-100 10 -125 3 -25 7 -102 10 -171 l7 -127 -46 -15 c-25 -9 -48 -12 -50 -9 -2
4 -7 39 -10 78 -3 39 -8 100 -12 135 -24 256 -35 741 -20 864 2 17 5 39 6 50
2 18 20 -51 34 -130z m-2799 -40 c2 -59 7 -110 9 -112 2 -3 0 -17 -4 -33 -4
-16 -6 -31 -3 -34 4 -4 7 -126 3 -138 0 -2 -2 -61 -5 -133 -3 -71 -7 -151 -9
-176 -2 -25 -7 -83 -11 -130 -4 -46 -9 -97 -11 -114 -4 -30 -15 -132 -17 -170
-1 -11 -6 -23 -11 -26 -9 -7 -78 11 -87 23 -7 11 4 318 16 403 2 17 7 66 10
110 3 44 7 89 9 100 3 18 12 86 21 165 5 45 25 164 35 210 5 25 12 58 14 73 6
37 27 99 32 95 2 -2 6 -53 9 -113z m3046 -232 c6 -16 13 -41 16 -58 2 -16 10
-55 18 -85 7 -30 16 -77 20 -105 3 -27 8 -66 11 -85 5 -41 12 -117 19 -212 l5
-68 -36 -15 c-53 -22 -62 -19 -61 17 0 41 -11 229 -19 323 -4 39 -7 88 -7 110
-1 53 13 205 19 205 2 0 9 -12 15 -27z m-3322 -40 c0 -10 3 -49 7 -88 10 -93
10 -109 -11 -325 -2 -19 -6 -98 -10 -175 -3 -76 -8 -141 -11 -144 -3 -3 -24 1
-47 9 l-42 15 1 100 c1 90 10 221 19 278 2 12 6 38 9 57 20 126 63 290 76 290
5 0 9 -8 9 -17z m2836 -118 c15 -43 31 -99 35 -125 5 -25 11 -56 14 -70 6 -26
14 -77 21 -145 2 -22 7 -67 10 -100 4 -33 8 -86 10 -117 l3 -58 -37 -10 c-20
-5 -53 -14 -73 -19 l-36 -9 -7 47 c-5 41 -11 116 -19 261 -1 25 1 53 6 63 5 9
5 17 0 17 -5 0 -8 17 -6 38 10 118 14 161 19 197 5 41 26 117 31 112 1 -1 15
-38 29 -82z m-2290 -110 c13 -85 14 -437 1 -505 -2 -14 -7 -44 -10 -68 -3 -24
-8 -47 -11 -51 -2 -5 -24 -4 -47 1 -24 5 -54 10 -68 11 -25 2 -25 2 -24 102 1
154 12 253 50 445 9 44 55 174 67 188 15 19 25 -9 42 -123z"/>
<path d="M3315 5895 c-59 -11 -157 -55 -218 -98 -95 -66 -226 -221 -301 -357
-60 -108 -147 -309 -160 -373 -3 -12 -12 -47 -21 -77 -21 -73 -51 -212 -60
-280 -4 -30 -9 -64 -11 -75 -7 -36 -18 -208 -17 -280 1 -279 48 -512 141 -705
44 -92 63 -119 127 -189 163 -176 379 -205 592 -80 113 66 299 281 365 419
l16 35 2 -35 c5 -86 8 -120 25 -225 3 -16 6 -34 6 -40 6 -37 53 -197 79 -263
81 -210 232 -216 295 -10 9 29 19 60 22 68 4 8 7 20 8 25 2 6 11 39 20 75 20
76 21 83 31 147 3 26 8 57 10 68 8 43 17 153 17 218 0 37 1 67 3 67 1 0 25
-45 53 -100 75 -147 143 -244 240 -340 95 -94 173 -142 267 -163 62 -14 76
-14 146 -3 110 17 238 127 306 263 38 74 89 220 97 273 2 14 9 50 15 80 31
157 33 515 4 663 -2 12 -6 45 -10 72 -3 28 -14 91 -26 140 -11 50 -21 97 -23
105 -2 8 -4 15 -5 15 -1 0 -3 10 -6 22 -7 38 -65 216 -91 278 -141 339 -313
554 -519 647 -39 18 -68 22 -139 23 -82 0 -96 -3 -157 -33 -117 -57 -217 -190
-279 -369 -28 -82 -26 -88 29 -102 91 -22 89 -23 102 28 20 83 86 205 140 259
118 119 251 100 411 -58 42 -41 97 -108 124 -149 99 -153 194 -378 241 -566
17 -68 34 -147 39 -175 3 -19 8 -42 10 -50 7 -25 18 -111 30 -245 6 -63 6
-306 0 -360 -8 -72 -16 -130 -20 -145 -2 -8 -6 -26 -9 -40 -18 -107 -79 -249
-139 -328 -142 -186 -351 -128 -546 153 -83 119 -171 304 -226 473 -18 56 -20
57 -59 42 -27 -10 -32 -6 -40 31 -36 183 -78 264 -150 294 -77 32 -148 -10
-199 -118 -20 -43 -25 -47 -52 -45 -30 3 -30 2 -53 -82 -13 -47 -25 -93 -27
-103 -8 -34 -17 -61 -52 -151 -142 -366 -355 -599 -562 -614 -38 -2 -78 -1
-88 2 -10 4 -20 7 -23 8 -18 1 -81 42 -115 75 -122 115 -208 323 -242 588 -9
74 -9 392 1 460 8 59 27 183 31 205 22 111 80 308 115 385 10 22 17 42 17 45
-1 3 20 46 47 95 101 188 186 292 306 374 74 51 136 71 207 66 74 -5 80 -6
131 -33 23 -12 44 -22 46 -22 6 0 88 111 84 115 -1 1 -28 16 -58 33 -94 52
-190 67 -295 47z m751 -1503 c-3 -2 1 -21 9 -41 8 -20 19 -61 25 -91 5 -30 13
-66 15 -80 23 -111 27 -441 7 -498 -6 -18 -8 -30 -3 -28 6 4 -9 -77 -33 -179
-21 -92 -51 -183 -57 -179 -17 10 -70 194 -94 322 -27 148 -24 363 7 502 5 25
11 52 13 60 6 30 43 136 65 188 18 42 25 50 37 41 7 -7 11 -14 9 -17z"/>
<path d="M4555 5055 c-45 -19 -71 -46 -100 -103 -32 -63 -72 -216 -77 -292
l-3 -54 50 -18 c28 -10 59 -22 70 -27 11 -5 38 -16 60 -24 39 -15 37 -16 -76
-13 l-117 4 -2 -72 c-1 -39 -2 -75 -2 -81 0 -31 15 -146 23 -180 24 -96 52
-138 106 -156 82 -27 177 86 208 248 2 10 4 18 5 18 3 0 16 76 27 160 10 74
10 334 1 395 -10 64 -24 106 -48 145 -12 19 -23 35 -25 35 -1 0 -18 6 -36 14
-28 12 -39 12 -64 1z"/>
<path d="M3483 5045 c-18 -8 -41 -22 -51 -32 -47 -45 -95 -179 -106 -296 -8
-75 -10 -73 64 -82 25 -3 64 -8 86 -11 58 -7 106 -22 79 -24 -11 -1 -27 -3
-35 -5 -8 -1 -33 -6 -55 -9 -36 -6 -63 -10 -120 -21 -11 -2 -24 -4 -28 -4 -9
-1 -2 -210 8 -263 3 -16 7 -39 9 -53 9 -48 38 -139 56 -175 62 -119 176 -132
248 -27 63 91 97 258 96 477 -1 95 -12 238 -20 251 -2 4 -6 24 -10 45 -8 55
-50 154 -78 185 -42 49 -95 65 -143 44z"/>
</g>
</svg>
